<svg width="37" height="36" viewBox="0 0 37 36" fill="none" xmlns="http://www.w3.org/2000/svg">
<path d="M35.7099 17.9183C35.7099 8.71438 27.8317 1.29979 18.1725 1.29979C8.51339 1.29979 0.635161 8.71439 0.635162 17.9183C0.635162 27.1222 8.5134 34.5368 18.1725 34.5368C27.8317 34.5368 35.7099 27.1222 35.7099 17.9183Z" fill="#FFCD1B" stroke="#FFCD1B"/>
<path d="M14.1632 16.8251H22.8918V27.0707H14.1632V16.8251Z" fill="white" stroke="#373737" stroke-width="0.5"/>
<path d="M12.8187 15.4273L12.8187 15.4273L12.8079 15.1418L12.5263 15.1904C12.2933 15.2306 12.0531 15.2044 11.8366 15.1157C11.6208 15.0272 11.4397 14.8812 11.3146 14.6981C11.0716 14.3301 10.7364 13.5442 10.5202 12.712C10.4128 12.2982 10.3374 11.8827 10.3163 11.5113C10.2948 11.1351 10.3307 10.8282 10.4243 10.6157C10.525 10.3872 10.6431 10.2622 10.7504 10.1926C10.8581 10.1227 10.9723 10.0973 11.0827 10.0961C11.1951 10.095 11.3003 10.1192 11.3797 10.1455C11.4187 10.1585 11.4498 10.1713 11.4702 10.1805C11.4803 10.185 11.4877 10.1886 11.4919 10.1907L11.4956 10.1926L11.4958 10.1927L11.4959 10.1927C11.4961 10.1929 11.4962 10.1929 11.496 10.1928L11.9166 10.4217L11.8628 9.94456C11.5974 7.59159 12.0984 5.6736 13.2238 4.34707C14.3474 3.02274 16.1254 2.25 18.4936 2.25C20.8619 2.25 22.6421 3.02278 23.7667 4.34716C24.893 5.67362 25.3941 7.59143 25.1245 9.94412L25.07 10.4197L25.4902 10.1933C25.4901 10.1934 25.4901 10.1934 25.4903 10.1933L25.4904 10.1932L25.4907 10.1931L25.4912 10.1928L25.4943 10.1913C25.4986 10.1892 25.5059 10.1856 25.5161 10.1811C25.5365 10.1721 25.5675 10.1594 25.6066 10.1466C25.686 10.1206 25.7913 10.0967 25.9039 10.0982C26.0147 10.0996 26.1291 10.1252 26.237 10.195C26.3445 10.2646 26.4625 10.389 26.563 10.616C26.6565 10.8276 26.6924 11.1344 26.6707 11.511C26.6493 11.8827 26.5734 12.2985 26.465 12.7121C26.2463 13.5461 25.9068 14.328 25.6582 14.6833L25.6582 14.6833L25.6561 14.6863C25.534 14.8663 25.3534 15.0076 25.138 15.0875C24.9225 15.1675 24.6852 15.1811 24.4606 15.1262L24.1625 15.0532L24.1513 15.3599L24.1513 15.3599L24.1513 15.3601L24.1513 15.3609L24.1512 15.3644L24.1506 15.3785L24.1482 15.4333C24.1461 15.4811 24.1427 15.5503 24.1379 15.6353C24.1283 15.8054 24.113 16.0383 24.0902 16.2898C24.0674 16.5417 24.0373 16.8098 23.9984 17.0509C23.9588 17.2964 23.9125 17.4979 23.862 17.6254C23.7467 17.9168 23.276 18.9662 22.3905 19.9384C21.5071 20.9084 20.2278 21.7845 18.485 21.7845C16.7422 21.7845 15.463 20.9084 14.5795 19.9384C13.694 18.9662 13.2233 17.9168 13.108 17.6254C13.0015 17.3563 12.9265 16.8223 12.8797 16.3229C12.857 16.08 12.8417 15.8556 12.8321 15.6919C12.8273 15.6101 12.8239 15.5437 12.8218 15.4978L12.8194 15.4451L12.8188 15.4316L12.8187 15.4283L12.8187 15.4275L12.8187 15.4273L12.8187 15.4273Z" fill="white" stroke="#373737" stroke-width="0.5"/>
<path d="M26.2987 5.50903C24.5073 4.13959 22.7187 2.77557 21.3342 2.44203C20.4242 2.14181 19.4659 1.99406 18.5023 2.00543C15.2117 2.00543 12.4628 2.96268 12.0386 5.91579C10.5395 6.51509 10.8147 8.82822 11.1329 9.85056C11.3077 9.8535 11.479 9.89728 11.6316 9.97801C12.2737 10.3712 12.4198 11.4424 12.3195 12.5027C13.7527 12.5027 12.6692 8.12588 13.7957 7.06558C18.058 9.6065 23.7505 8.26689 23.7505 8.26689C23.9111 9.92107 23.676 12.5081 24.685 12.5027C24.5847 11.4885 24.5818 10.3794 25.37 9.97801C25.4789 9.08969 25.4644 8.1917 25.327 7.30692C25.8891 6.85248 26.2384 6.20618 26.2987 5.50903Z" fill="#373737"/>
<path d="M32.3704 26.985C29.5108 25.8028 26.3239 24.6748 23.2546 24.1415C20.9959 26.3706 15.7562 26.4004 13.7584 24.1415C10.6861 24.6741 7.19198 26.138 4.32968 27.3208C5.7569 29.5425 7.96855 31.0833 10.3638 32.3578C12.759 33.6323 15.7152 34.0368 18.4633 34.0368C21.2114 34.0368 24.296 33.2965 26.6912 32.022C29.0864 30.7475 30.9431 29.2067 32.3704 26.985Z" fill="#373737"/>
</svg>
