<svg width="29" height="28" viewBox="0 0 29 28" fill="none" xmlns="http://www.w3.org/2000/svg">
<path d="M12.6498 21.5408C13.1681 21.5408 13.5947 21.1187 13.5252 20.6051C13.3339 19.1938 12.7135 17.8758 11.7447 16.8559C10.5643 15.6134 8.96341 14.9154 7.2941 14.9154C5.6248 14.9154 4.02387 15.6134 2.8435 16.8559C1.87466 17.8758 1.25429 19.1938 1.06305 20.6051C0.99346 21.1187 1.42014 21.5408 1.93841 21.5408L12.6498 21.5408Z" fill="white"/>
<path d="M13.0602 20.6681C13.0858 20.8573 12.9289 21.0716 12.6498 21.0716L1.93841 21.0716C1.65929 21.0716 1.50238 20.8573 1.52801 20.6681C1.70644 19.3514 2.28487 18.1252 3.18368 17.1791C4.27813 16.027 5.75724 15.3846 7.2941 15.3846C8.83097 15.3846 10.3101 16.027 11.4045 17.1791C12.3033 18.1252 12.8818 19.3514 13.0602 20.6681Z" stroke="#101010" stroke-opacity="0.95" stroke-width="0.938413"/>
<path d="M11.5591 10.9401C11.5591 13.1355 9.77932 14.9153 7.58387 14.9153C5.38841 14.9153 3.60864 13.1355 3.60864 10.9401C3.60864 8.74461 5.38841 6.96484 7.58387 6.96484C9.77932 6.96484 11.5591 8.74461 11.5591 10.9401Z" fill="white"/>
<path d="M11.0899 10.9401C11.0899 12.8764 9.52019 14.4461 7.58387 14.4461C5.64755 14.4461 4.07785 12.8764 4.07785 10.9401C4.07785 9.00375 5.64755 7.43405 7.58387 7.43405C9.52019 7.43405 11.0899 9.00375 11.0899 10.9401Z" stroke="#101010" stroke-opacity="0.95" stroke-width="0.938413"/>
<path d="M27.9296 21.5408C28.4479 21.5408 28.8745 21.1187 28.8049 20.6051C28.6137 19.1938 27.9933 17.8758 27.0245 16.8559C25.8441 15.6134 24.2432 14.9154 22.5739 14.9154C20.9046 14.9154 19.3037 15.6134 18.1233 16.8559C17.1544 17.8758 16.5341 19.1938 16.3428 20.6051C16.2732 21.1187 16.6999 21.5408 17.2182 21.5408L27.9296 21.5408Z" fill="white"/>
<path d="M28.34 20.6681C28.3656 20.8573 28.2087 21.0716 27.9296 21.0716L17.2182 21.0716C16.9391 21.0716 16.7822 20.8573 16.8078 20.6681C16.9862 19.3514 17.5647 18.1252 18.4635 17.1791C19.5579 16.027 21.037 15.3846 22.5739 15.3846C24.1108 15.3846 25.5899 16.027 26.6843 17.1791C27.5831 18.1252 28.1616 19.3514 28.34 20.6681Z" stroke="#101010" stroke-opacity="0.95" stroke-width="0.938413"/>
<path d="M26.7976 10.9401C26.7976 13.1355 25.0178 14.9153 22.8224 14.9153C20.6269 14.9153 18.8472 13.1355 18.8472 10.9401C18.8472 8.74461 20.6269 6.96484 22.8224 6.96484C25.0178 6.96484 26.7976 8.74461 26.7976 10.9401Z" fill="white"/>
<path d="M26.3284 10.9401C26.3284 12.8764 24.7587 14.4461 22.8224 14.4461C20.8861 14.4461 19.3164 12.8764 19.3164 10.9401C19.3164 9.00375 20.8861 7.43405 22.8224 7.43405C24.7587 7.43405 26.3284 9.00375 26.3284 10.9401Z" stroke="#101010" stroke-opacity="0.95" stroke-width="0.938413"/>
<path d="M20.3882 9.06416C20.3882 12.4133 17.7331 15.1283 14.4579 15.1283C11.1826 15.1283 8.52747 12.4133 8.52747 9.06416C8.52747 5.71501 11.1826 3 14.4579 3C17.7331 3 20.3882 5.71501 20.3882 9.06416Z" fill="white"/>
<path d="M19.9461 9.06416C19.9461 12.1785 17.4797 14.6862 14.4579 14.6862C11.436 14.6862 8.96956 12.1785 8.96956 9.06416C8.96956 5.94983 11.436 3.44209 14.4579 3.44209C17.4797 3.44209 19.9461 5.94983 19.9461 9.06416Z" stroke="#101010" stroke-opacity="0.95" stroke-width="0.884185"/>
<path d="M23.9543 24.9244C24.4726 24.9244 24.8973 24.5033 24.8485 23.9873C24.6315 21.6954 23.6235 19.5387 21.9819 17.8971C20.1182 16.0334 17.5904 14.9863 14.9547 14.9863C12.3189 14.9863 9.79114 16.0334 7.92739 17.8971C6.28582 19.5387 5.27785 21.6954 5.06085 23.9873C5.012 24.5033 5.43674 24.9244 5.95502 24.9244L23.9543 24.9244Z" fill="white"/>
<path d="M24.3814 24.0315C24.4013 24.2425 24.2267 24.4552 23.9543 24.4552L5.95502 24.4552C5.68267 24.4552 5.508 24.2425 5.52797 24.0315C5.73472 21.8479 6.69512 19.793 8.25917 18.2289C10.0349 16.4531 12.4434 15.4555 14.9547 15.4555C17.466 15.4555 19.8744 16.4531 21.6502 18.2289C23.2142 19.793 24.1746 21.8479 24.3814 24.0315Z" stroke="#101010" stroke-opacity="0.95" stroke-width="0.938413"/>
</svg>
