<svg width="29" height="28" viewBox="0 0 29 28" fill="none" xmlns="http://www.w3.org/2000/svg">
<path d="M24.4222 4.04435C25.6907 7.33833 25.5736 14.5209 16.6124 19.516C15.4796 20.1475 14.2054 20.744 12.7748 21.2933C12.8048 19.4233 11.8547 15.9794 7.81515 17.1632L4.98745 16.5448L4 13.8946C4.99011 12.3927 7.90984 9.53927 11.6679 10.14C14.491 6.62148 18.7242 3.59533 24.4222 4.04435Z" fill="white"/>
<path d="M10 19.516C11.0767 20.3681 11.2878 22.5076 10 23L5.31548 25.3194C5.11179 25.3973 4.91048 25.2013 4.98745 25L6.41089 20.1322C6.84138 19.0067 9.04763 18.7624 10 19.516Z" fill="white"/>
<path d="M12.7748 21.2933C12.8048 19.4233 11.8547 15.9794 7.81515 17.1632M12.7748 21.2933L13.4678 24.0924L16.1838 25C17.6856 23.9897 20.5099 21.0447 19.809 17.3618M12.7748 21.2933C14.2054 20.744 15.4796 20.1475 16.6124 19.516C25.5736 14.5209 25.6907 7.33833 24.4222 4.04435C18.7242 3.59533 14.491 6.62148 11.6679 10.14M7.81515 17.1632L4.98745 16.5448L4 13.8946C4.99011 12.3927 7.90984 9.53927 11.6679 10.14M7.81515 17.1632C8.43621 15.2453 9.71444 12.5748 11.6679 10.14M10 19.516C9.04763 18.7624 6.84138 19.0067 6.41089 20.1322L4.98745 25C4.91048 25.2013 5.11179 25.3973 5.31548 25.3194L10 23C11.2878 22.5076 11.0767 20.3681 10 19.516Z" stroke="#101010" stroke-opacity="0.95" stroke-width="0.576726"/>
<path d="M13.4677 24.0924L12.7748 21.2932C14.2054 20.744 15.4795 20.1475 16.6124 19.516C17.6779 18.8283 19.8089 17.4347 19.8089 17.3618C20.5098 21.0447 17.6855 23.9897 16.1838 25L13.4677 24.0924Z" fill="white" stroke="#101010" stroke-opacity="0.95" stroke-width="0.576726"/>
<circle cx="18.3888" cy="10.6111" r="2.72222" fill="white"/>
<circle cx="18.3888" cy="10.6111" r="2.43386" stroke="#101010" stroke-opacity="0.95" stroke-width="0.576726"/>
</svg>
