<svg width="29" height="28" viewBox="0 0 29 28" fill="none" xmlns="http://www.w3.org/2000/svg">
<path d="M25.8855 6.51765L22.1546 2.75294L26.6316 2L25.8855 6.51765Z" fill="white"/>
<path d="M24.1133 4.68235L23.572 5.27248C18.4379 10.8695 11.8409 14.9194 4.52637 16.9647M22.1546 2.75294L25.8855 6.51765L26.6316 2L22.1546 2.75294Z" stroke="#101010" stroke-opacity="0.95" stroke-width="3.4359" stroke-linecap="round" stroke-linejoin="round"/>
<path d="M25.8855 6.51765L22.1546 2.75294L26.6317 2L25.8855 6.51765Z" fill="white"/>
<path d="M24.1133 4.68235L23.572 5.27248C18.4379 10.8695 11.8409 14.9194 4.52637 16.9647M22.1546 2.75294L25.8855 6.51765L26.6317 2L22.1546 2.75294Z" stroke="white" stroke-width="1.71795" stroke-linecap="round" stroke-linejoin="round"/>
<path d="M10.8181 18.9412H17.8135V24.0236H10.8181V18.9412Z" fill="white"/>
<path d="M17.8135 24.0236C17.8135 25.1151 16.2475 26 14.3158 26C12.3841 26 10.8181 25.1151 10.8181 24.0236C10.8181 22.932 12.3841 22.0471 14.3158 22.0471C16.2475 22.0471 17.8135 22.932 17.8135 24.0236Z" fill="white"/>
<path d="M17.8135 18.9412C17.8135 20.0328 16.2475 20.9177 14.3158 20.9177C12.3841 20.9177 10.8181 20.0328 10.8181 18.9412C10.8181 17.8496 12.3841 16.9647 14.3158 16.9647C16.2475 16.9647 17.8135 17.8496 17.8135 18.9412Z" fill="white"/>
<path d="M18.184 18.5117C18.0248 17.9437 17.5607 17.4864 17.0003 17.1697C16.2918 16.7693 15.3418 16.5352 14.3158 16.5352C13.2898 16.5352 12.3398 16.7693 11.6313 17.1697C11.0708 17.4864 10.6067 17.9437 10.4476 18.5117H10.3886V18.9412V24.0236V24.453H10.4476C10.6067 25.021 11.0708 25.4784 11.6313 25.7951C12.3398 26.1954 13.2898 26.4295 14.3158 26.4295C15.3418 26.4295 16.2918 26.1954 17.0003 25.7951C17.5607 25.4784 18.0248 25.021 18.184 24.453H18.2429V24.0236V18.9412V18.5117H18.184Z" stroke="#101010" stroke-opacity="0.95" stroke-width="0.858974"/>
<path d="M10.8181 22.0471H17.8135V24.0236H10.8181V22.0471Z" fill="#101010" fill-opacity="0.95"/>
<path d="M17.8135 24.0236C17.8135 25.1152 16.2475 26.0001 14.3158 26.0001C12.3841 26.0001 10.8181 25.1152 10.8181 24.0236C10.8181 22.932 12.3841 22.0471 14.3158 22.0471C16.2475 22.0471 17.8135 22.932 17.8135 24.0236Z" fill="#101010" fill-opacity="0.95"/>
<path d="M10.8181 20.353H17.8135V22.3295H10.8181V20.353Z" fill="white"/>
<path d="M17.8135 22.3295C17.8135 23.4211 16.2475 24.306 14.3158 24.306C12.3841 24.306 10.8181 23.4211 10.8181 22.3295C10.8181 21.2379 12.3841 20.353 14.3158 20.353C16.2475 20.353 17.8135 21.2379 17.8135 22.3295Z" fill="white"/>
<path d="M10.8181 19.5177C10.8181 19.0433 11.2027 18.6587 11.6771 18.6587H16.9545C17.4289 18.6587 17.8135 19.0433 17.8135 19.5177V20.6352H10.8181V19.5177Z" fill="#101010" fill-opacity="0.95"/>
<path d="M17.8135 20.6352C17.8135 21.7267 16.2475 22.6116 14.3158 22.6116C12.3841 22.6116 10.8181 21.7267 10.8181 20.6352C10.8181 19.5436 12.3841 18.6587 14.3158 18.6587C16.2475 18.6587 17.8135 19.5436 17.8135 20.6352Z" fill="#101010" fill-opacity="0.95"/>
<path d="M17.8135 18.9412C17.8135 20.0328 16.2475 20.9177 14.3158 20.9177C12.3841 20.9177 10.8181 20.0328 10.8181 18.9412C10.8181 17.8496 12.3841 16.9647 14.3158 16.9647C16.2475 16.9647 17.8135 17.8496 17.8135 18.9412Z" fill="white"/>
<path d="M2 22.6117H8.99535V24.0235H2V22.6117Z" fill="white"/>
<path d="M8.99535 24.0235C8.99535 25.1151 7.42939 26 5.49767 26C3.56596 26 2 25.1151 2 24.0235C2 22.9319 3.56596 21.2 5.49767 21.2C7.42939 21.2 8.99535 22.9319 8.99535 24.0235Z" fill="white"/>
<path d="M8.99535 22.6117C8.99535 23.7033 7.42939 21.2 5.49767 21.2C3.56596 21.2 2 23.7033 2 22.6117C2 21.5202 3.56596 20.6353 5.49767 20.6353C7.42939 20.6353 8.99535 21.5202 8.99535 22.6117Z" fill="white"/>
<path d="M1.62949 22.1822H1.57051V22.6117V24.0235V24.453H1.62949C1.78861 25.021 2.25273 25.4783 2.81315 25.795C3.5217 26.1954 4.47171 26.4295 5.49767 26.4295C6.52364 26.4295 7.47365 26.1954 8.1822 25.795C8.74262 25.4783 9.20673 25.021 9.36585 24.453H9.42483V24.0235V22.6117V22.1822H9.36585C9.20673 21.6143 8.74262 21.1569 8.1822 20.8402C7.47365 20.4398 6.52364 20.2058 5.49767 20.2058C4.47171 20.2058 3.5217 20.4398 2.81315 20.8402C2.25273 21.1569 1.78861 21.6143 1.62949 22.1822Z" stroke="#101010" stroke-opacity="0.95" stroke-width="0.858974"/>
<path d="M2 22.6117H8.99535V24.0235H2V22.6117Z" fill="#101010" fill-opacity="0.95"/>
<path d="M8.99535 24.0235C8.99535 25.1151 7.42939 26 5.49767 26C3.56596 26 2 25.1151 2 24.0235C2 22.9319 3.56596 21.2 5.49767 21.2C7.42939 21.2 8.99535 22.9319 8.99535 24.0235Z" fill="#101010" fill-opacity="0.95"/>
<path d="M8.99535 22.6117C8.99535 23.7033 7.42939 21.2 5.49767 21.2C3.56596 21.2 2 23.7033 2 22.6117C2 21.5202 3.56596 20.6353 5.49767 20.6353C7.42939 20.6353 8.99535 21.5202 8.99535 22.6117Z" fill="#101010" fill-opacity="0.95"/>
<path d="M8.99535 22.6117C8.99535 23.7033 7.42939 24.5882 5.49767 24.5882C3.56596 24.5882 2 23.7033 2 22.6117C2 21.5202 3.56596 20.6353 5.49767 20.6353C7.42939 20.6353 8.99535 21.5202 8.99535 22.6117Z" fill="white"/>
<path d="M19.6364 16.1175H26.6317V24.0234L23.134 22.0469L19.6364 24.0234L19.6364 16.1175Z" fill="#101010" fill-opacity="0.95"/>
<path d="M26.6317 24.0234C26.6317 25.1149 25.0657 25.9998 23.134 25.9998C21.2023 25.9998 19.6364 25.1149 19.6364 24.0234C19.6364 22.9318 21.2023 22.0469 23.134 22.0469C25.0657 22.0469 26.6317 22.9318 26.6317 24.0234Z" fill="#101010" fill-opacity="0.95"/>
<path d="M26.6317 16.1175C26.6317 17.209 25.0657 18.0939 23.134 18.0939C21.2023 18.0939 19.6364 17.209 19.6364 16.1175C19.6364 15.0259 21.2023 14.141 23.134 14.141C25.0657 14.141 26.6317 15.0259 26.6317 16.1175Z" fill="#101010" fill-opacity="0.95"/>
<path d="M27.0022 15.688C26.8431 15.12 26.379 14.6627 25.8185 14.346C25.11 13.9456 24.16 13.7115 23.134 13.7115C22.1081 13.7115 21.1581 13.9456 20.4495 14.346C19.8891 14.6627 19.425 15.12 19.2658 15.688H19.2069V16.1175V24.0234V24.7594L19.3478 24.6797C19.5538 25.1434 19.9658 25.5215 20.4495 25.7949C21.1581 26.1952 22.1081 26.4293 23.134 26.4293C24.16 26.4293 25.11 26.1952 25.8185 25.7949C26.3023 25.5215 26.7142 25.1434 26.9203 24.6797L27.0612 24.7594V24.0234V16.1175V15.688H27.0022Z" stroke="#101010" stroke-opacity="0.95" stroke-width="0.858974"/>
<path d="M19.6842 20.9475H26.6316V22.8422H19.6842V20.9475Z" fill="white"/>
<path d="M26.6316 22.8422C26.6316 23.8887 25.0764 24.737 23.1579 24.737C21.2394 24.737 19.6842 23.8887 19.6842 22.8422C19.6842 21.7958 21.2394 20.9475 23.1579 20.9475C25.0764 20.9475 26.6316 21.7958 26.6316 22.8422Z" fill="white"/>
<path d="M19.6842 19.0526H26.6316V21.2631H19.6842V19.0526Z" fill="#101010" fill-opacity="0.95"/>
<path d="M26.6316 21.2631C26.6316 22.484 25.0764 23.4737 23.1579 23.4737C21.2394 23.4737 19.6842 22.484 19.6842 21.2631C19.6842 20.0423 21.2394 19.0526 23.1579 19.0526C25.0764 19.0526 26.6316 20.0423 26.6316 21.2631Z" fill="#101010" fill-opacity="0.95"/>
<path d="M19.6364 17.5295H26.6317V19.506H19.6364V17.5295Z" fill="white"/>
<path d="M26.6317 19.506C26.6317 20.5976 25.0657 21.4825 23.134 21.4825C21.2023 21.4825 19.6364 20.5976 19.6364 19.506C19.6364 18.4144 21.2023 17.5295 23.134 17.5295C25.0657 17.5295 26.6317 18.4144 26.6317 19.506Z" fill="white"/>
<path d="M19.6364 16.6943C19.6364 16.2199 20.0209 15.8353 20.4953 15.8353H25.7727C26.2471 15.8353 26.6317 16.2199 26.6317 16.6943V17.8118H19.6364V16.6943Z" fill="#101010" fill-opacity="0.95"/>
<path d="M26.6317 17.8118C26.6317 18.9034 25.0657 19.7883 23.134 19.7883C21.2023 19.7883 19.6364 18.9034 19.6364 17.8118C19.6364 16.7202 21.2023 15.8353 23.134 15.8353C25.0657 15.8353 26.6317 16.7202 26.6317 17.8118Z" fill="#101010" fill-opacity="0.95"/>
<path d="M26.6317 16.1175C26.6317 17.209 25.0657 18.0939 23.134 18.0939C21.2023 18.0939 19.6364 17.209 19.6364 16.1175C19.6364 15.0259 21.2023 14.141 23.134 14.141C25.0657 14.141 26.6317 15.0259 26.6317 16.1175Z" fill="white"/>
</svg>
