<svg width="32" height="32" viewBox="0 0 32 32" fill="none" xmlns="http://www.w3.org/2000/svg">
    <path d="M26.0701 3.99607C25.7341 4.0117 25.4177 4.10935 25.1365 4.21873H25.1326C24.8474 4.33201 23.492 4.90232 21.4334 5.7656C19.3748 6.63279 16.7029 7.75779 14.0506 8.87498C8.75368 11.1054 3.54665 13.3008 3.54665 13.3008L3.60915 13.2773C3.60915 13.2773 3.24977 13.3945 2.87477 13.6523C2.68337 13.7773 2.47243 13.9492 2.28884 14.2187C2.10524 14.4883 1.9568 14.9023 2.01149 15.3281C2.10134 16.0508 2.57009 16.4844 2.90602 16.7226C3.24587 16.9648 3.57009 17.0781 3.57009 17.0781H3.5779L8.46071 18.7226C8.67946 19.4258 9.94899 23.5976 10.2537 24.5586C10.4334 25.1328 10.6091 25.4922 10.8279 25.7656C10.9334 25.9062 11.0584 26.0234 11.2068 26.1172C11.2654 26.1523 11.3279 26.1797 11.3904 26.2031C11.4099 26.2148 11.4295 26.2187 11.4529 26.2226L11.4021 26.2109C11.4177 26.2148 11.4295 26.2265 11.4412 26.2304C11.4802 26.2422 11.5076 26.2461 11.5584 26.2539C12.3318 26.4883 12.9529 26.0078 12.9529 26.0078L12.9881 25.9804L15.8709 23.3554L20.7029 27.0625L20.8123 27.1094C21.8201 27.5508 22.8396 27.3047 23.3787 26.8711C23.9216 26.4336 24.1326 25.875 24.1326 25.875L24.1677 25.7851L27.9021 6.65623C28.0076 6.18357 28.0349 5.74217 27.9177 5.31248C27.8006 4.88279 27.4998 4.48045 27.1365 4.2656C26.7693 4.04685 26.406 3.98045 26.0701 3.99607ZM25.9685 6.04685C25.9646 6.10935 25.9763 6.10154 25.949 6.22263V6.23435L22.2498 25.164C22.2341 25.1914 22.2068 25.25 22.1326 25.3086C22.0545 25.3711 21.992 25.4101 21.6677 25.2812L15.7576 20.75L12.1873 24.0039L12.9373 19.2148C12.9373 19.2148 22.1951 10.5859 22.5935 10.2148C22.992 9.84373 22.8591 9.7656 22.8591 9.7656C22.8865 9.31248 22.2576 9.63279 22.2576 9.63279L10.0818 17.1758L10.0779 17.1562L4.24196 15.1914V15.1875C4.23805 15.1875 4.23024 15.1836 4.22634 15.1836C4.23024 15.1836 4.25759 15.1719 4.25759 15.1719L4.28884 15.1562L4.32009 15.1445C4.32009 15.1445 9.53102 12.9492 14.8279 10.7187C17.4802 9.60154 20.1521 8.47654 22.2068 7.60935C24.2615 6.74607 25.781 6.11326 25.867 6.0781C25.949 6.04685 25.9099 6.04685 25.9685 6.04685Z" fill="white"/>
</svg>
