<svg width="54" height="53" viewBox="0 8 54 53" fill="none" xmlns="http://www.w3.org/2000/svg">
    <g>
        <path d="M9.95403 38.2077C7.80919 38.1673 6.06227 36.0435 6.06227 33.4041C6.06227 30.7646 7.80919 28.6408 9.95403 28.6005V38.2077Z"
              fill="url(#paint0_linear_480_1533)" stroke="white" stroke-width="0.124537"/>
        <path d="M47.9374 33.4041C47.9374 36.0435 46.1905 38.1673 44.0457 38.2077V28.6005C46.1905 28.6408 47.9374 30.7646 47.9374 33.4041Z"
              fill="url(#paint1_linear_480_1533)" stroke="white" stroke-width="0.124537"/>
        <path d="M44.9801 37.4066C44.9801 43.8821 42.9646 47.3194 39.7228 49.1452C36.4715 50.9765 31.9737 51.1958 26.9845 51.1958C21.9955 51.1958 17.4978 50.9765 14.2464 49.1452C11.0045 47.3194 8.98903 43.8821 8.98903 37.4066V34.9719C8.98918 28.4961 11.0053 24.4599 14.2532 22.0397C17.5048 19.6166 22.0027 18.8042 26.9845 18.8042C31.9664 18.8042 36.4644 19.6166 39.716 22.0397C42.9639 24.4599 44.9801 28.4961 44.9801 34.9719V37.4066Z"
              fill="url(#paint2_linear_480_1533)" stroke="white" stroke-width="0.124537"/>
        <path d="M41.3676 38.213C41.3676 45.9423 34.9347 47.8782 26.9992 47.8782C19.0637 47.8782 12.6309 45.9423 12.6309 38.213V36.1094C12.6309 28.3801 19.0637 27.0979 26.9992 27.0979C34.9347 27.0979 41.3676 28.3801 41.3676 36.1094V38.213Z"
              fill="url(#paint3_linear_480_1533)"/>
        <path d="M18.7004 36.0719C19.2657 35.9908 19.761 35.8063 20.1166 35.5533C20.1174 35.5527 20.1181 35.5522 20.1188 35.5517L18.1609 33.5026C18.1875 33.5592 18.2322 33.6122 18.2856 33.6615C18.3394 33.7113 18.4049 33.7602 18.4765 33.808C18.5955 33.8876 18.7359 33.9674 18.8744 34.0461C18.902 34.0618 18.9296 34.0775 18.9569 34.0931C19.1227 34.1879 19.2786 34.2806 19.3929 34.3721C19.4499 34.4178 19.4941 34.4613 19.5236 34.5025C19.5325 34.5148 19.5398 34.5267 19.5457 34.538C19.5438 34.5615 19.5429 34.5851 19.5429 34.609C19.5429 34.6328 19.5438 34.6565 19.5457 34.68C19.5398 34.6913 19.5325 34.7031 19.5236 34.7154C19.4941 34.7566 19.4499 34.8001 19.3929 34.8458C19.2786 34.9374 19.1227 35.03 18.9569 35.1249C18.9296 35.1405 18.902 35.1561 18.8744 35.1718C18.7359 35.2505 18.5955 35.3303 18.4765 35.4099C18.4049 35.4578 18.3394 35.5066 18.2856 35.5564C18.2322 35.6058 18.1875 35.6587 18.1609 35.7153L18.1609 35.7153C18.1336 35.7737 18.1367 35.8335 18.1635 35.8859C18.1891 35.9361 18.2345 35.9763 18.2872 36.0062C18.3928 36.0661 18.5445 36.0943 18.7004 36.0719ZM18.7004 36.0719L18.6916 36.0103L18.7004 36.0719C18.7004 36.0719 18.7004 36.0719 18.7004 36.0719ZM20.692 34.68C20.6979 34.6913 20.7052 34.7031 20.7141 34.7154C20.7436 34.7566 20.7878 34.8001 20.8448 34.8458C20.9591 34.9374 21.115 35.03 21.2808 35.1249C21.3081 35.1405 21.3357 35.1561 21.3633 35.1718C21.5018 35.2505 21.6422 35.3303 21.7612 35.4099C21.8328 35.4578 21.8983 35.5066 21.9521 35.5564C22.0055 35.6058 22.0502 35.6587 22.0768 35.7153L22.0768 35.7153C22.1041 35.7737 22.101 35.8335 22.0742 35.8859C22.0485 35.9361 22.0032 35.9763 21.9505 36.0062C21.8449 36.0661 21.6932 36.0943 21.5373 36.0719C21.5373 36.0719 21.5373 36.0719 21.5373 36.0719L21.5461 36.0103L20.692 34.68ZM20.692 34.68C20.6939 34.6565 20.6948 34.6328 20.6948 34.609C20.6948 34.5851 20.6939 34.5615 20.692 34.538C20.6979 34.5267 20.7052 34.5148 20.7141 34.5025C20.7436 34.4613 20.7878 34.4178 20.8448 34.3721C20.9591 34.2806 21.115 34.1879 21.2808 34.0931C21.3081 34.0775 21.3357 34.0618 21.3633 34.0461C21.5018 33.9674 21.6422 33.8876 21.7612 33.808C21.8328 33.7602 21.8983 33.7113 21.9521 33.6615L20.692 34.68ZM20.1188 33.6661C20.1196 33.6656 20.1203 33.6651 20.121 33.6646C20.4766 33.4116 20.9719 33.2271 21.5373 33.146L21.5373 33.146C21.6932 33.1237 21.8449 33.152 21.9505 33.2118C22.0032 33.2417 22.0485 33.2819 22.0742 33.3321C22.101 33.3845 22.1041 33.4443 22.0768 33.5026C22.0768 33.5026 22.0768 33.5026 22.0768 33.5026L20.1188 33.6661ZM20.1188 33.6661C20.1181 33.6656 20.1174 33.6651 20.1167 33.6646C19.7611 33.4116 19.2658 33.2271 18.7004 33.146L18.7004 33.146C18.5445 33.1237 18.3928 33.152 18.2872 33.2118C18.2345 33.2417 18.1892 33.2819 18.1635 33.3321C18.1367 33.3845 18.1336 33.4443 18.1609 33.5026L20.1188 33.6661Z"
              fill="url(#paint4_linear_480_1533)" stroke="white" stroke-width="0.124537"/>
        <path d="M32.3694 36.0719C32.9347 35.9908 33.4299 35.8063 33.7856 35.5533C33.7863 35.5527 33.7871 35.5522 33.7878 35.5517L31.8299 33.5026C31.8564 33.5592 31.9012 33.6122 31.9545 33.6615C32.0083 33.7113 32.0738 33.7602 32.1454 33.808C32.2644 33.8876 32.4049 33.9674 32.5433 34.0461C32.571 34.0618 32.5985 34.0775 32.6258 34.0931C32.7917 34.1879 32.9475 34.2806 33.0618 34.3721C33.1188 34.4178 33.163 34.4613 33.1926 34.5025C33.2014 34.5148 33.2088 34.5267 33.2146 34.538C33.2128 34.5615 33.2118 34.5851 33.2118 34.609C33.2118 34.6328 33.2128 34.6565 33.2146 34.68C33.2088 34.6913 33.2014 34.7031 33.1926 34.7154C33.163 34.7566 33.1188 34.8001 33.0618 34.8458C32.9475 34.9374 32.7917 35.03 32.6258 35.1249C32.5985 35.1405 32.571 35.1561 32.5433 35.1718C32.4049 35.2505 32.2644 35.3303 32.1454 35.4099C32.0738 35.4578 32.0083 35.5066 31.9545 35.5564C31.9012 35.6058 31.8564 35.6587 31.8299 35.7153L31.8298 35.7153C31.8025 35.7737 31.8056 35.8335 31.8324 35.8859C31.8581 35.9361 31.9034 35.9763 31.9561 36.0062C32.0617 36.0661 32.2134 36.0943 32.3694 36.0719ZM32.3694 36.0719L32.3605 36.0103L32.3694 36.0719C32.3694 36.0719 32.3694 36.0719 32.3694 36.0719ZM34.3609 34.68C34.3668 34.6913 34.3741 34.7031 34.383 34.7154C34.4126 34.7566 34.4568 34.8001 34.5138 34.8458C34.6281 34.9374 34.7839 35.03 34.9498 35.1249C34.9771 35.1405 35.0046 35.1561 35.0323 35.1718C35.1707 35.2505 35.3112 35.3303 35.4301 35.4099C35.5018 35.4578 35.5673 35.5066 35.6211 35.5564C35.6744 35.6058 35.7192 35.6587 35.7457 35.7153L35.7457 35.7153C35.7731 35.7737 35.77 35.8335 35.7431 35.8859C35.7175 35.9361 35.6722 35.9763 35.6194 36.0062C35.5139 36.0661 35.3622 36.0943 35.2062 36.0719C35.2062 36.0719 35.2062 36.0719 35.2062 36.0719L35.2151 36.0103L34.3609 34.68ZM34.3609 34.68C34.3628 34.6565 34.3638 34.6328 34.3638 34.609C34.3638 34.5851 34.3628 34.5615 34.3609 34.538C34.3668 34.5267 34.3741 34.5148 34.383 34.5025C34.4126 34.4613 34.4568 34.4178 34.5138 34.3721C34.6281 34.2806 34.7839 34.1879 34.9498 34.0931C34.9771 34.0775 35.0046 34.0618 35.0323 34.0461C35.1707 33.9674 35.3112 33.8876 35.4301 33.808C35.5018 33.7602 35.5673 33.7113 35.6211 33.6615L34.3609 34.68ZM33.7878 33.6661C33.7885 33.6656 33.7892 33.6651 33.7899 33.6646C34.1456 33.4116 34.6408 33.2271 35.2062 33.146L35.2062 33.146C35.3622 33.1237 35.5139 33.152 35.6194 33.2118C35.6721 33.2417 35.7175 33.2819 35.7431 33.3321C35.77 33.3845 35.7731 33.4443 35.7457 33.5026C35.7457 33.5026 35.7457 33.5026 35.7457 33.5026L33.7878 33.6661ZM33.7878 33.6661C33.7871 33.6656 33.7864 33.6651 33.7857 33.6646C33.43 33.4116 32.9348 33.2271 32.3694 33.146L32.3694 33.146C32.2134 33.1237 32.0617 33.152 31.9561 33.2118C31.9034 33.2417 31.8581 33.2819 31.8325 33.3321C31.8056 33.3845 31.8025 33.4443 31.8299 33.5026L33.7878 33.6661Z"
              fill="url(#paint5_linear_480_1533)" stroke="white" stroke-width="0.124537"/>
        <mask id="path-7-inside-1_480_1533" fill="white">
            <path fill-rule="evenodd" clip-rule="evenodd"
                  d="M35.7024 41.2241C35.7024 41.6542 35.4076 42.025 34.9255 42.3431V40.3423C35.4077 40.5123 35.7024 40.7916 35.7024 41.2241ZM33.5868 40.1269C34.0204 40.1465 34.4129 40.1955 34.7387 40.2844V42.4585C34.4128 42.6473 34.0204 42.8163 33.5868 42.9671V40.1269ZM33.4 40.1203C33.0554 40.1114 32.6882 40.1193 32.3103 40.1392V43.3369C32.6881 43.245 33.0553 43.143 33.4 43.0301V40.1203ZM31.0017 40.2459C31.3767 40.2063 31.7542 40.1729 32.1235 40.1499V43.3813C31.7541 43.4672 31.3766 43.5437 31.0017 43.6115V40.2459ZM30.8149 40.2661C30.4331 40.3084 30.0558 40.3564 29.6943 40.4053V43.8175C30.0555 43.7684 30.4329 43.711 30.8149 43.6446V40.2661ZM28.5815 40.563C28.8692 40.5212 29.1808 40.476 29.5075 40.4309V43.8424C29.1054 43.8947 28.7265 43.9367 28.3874 43.9692V40.5912L28.5815 40.563ZM28.2006 40.6181C27.7122 40.6881 27.3196 40.7406 27.0788 40.7526V44.0375H26.892V40.7527C26.6523 40.7408 26.2603 40.6888 25.772 40.6193V43.9874C26.339 44.0378 26.7732 44.0603 26.9849 44.0603C27.1976 44.0603 27.6329 44.0376 28.2006 43.9866V40.6181ZM25.5852 40.5925L25.386 40.5638L25.386 40.5638C25.0996 40.5225 24.7896 40.4778 24.4646 40.4331V43.8445C24.8671 43.8964 25.2462 43.9379 25.5852 43.9701V40.5925ZM23.156 40.2688C23.5384 40.3112 23.9161 40.359 24.2778 40.4077V43.8199C23.9163 43.7713 23.5386 43.7146 23.156 43.6489V40.2688ZM22.9692 40.2486C22.5951 40.2092 22.2183 40.1756 21.8493 40.1522V43.3898C22.2184 43.4742 22.5952 43.5495 22.9692 43.6162V40.2486ZM20.5407 40.12C20.8954 40.1114 21.2736 40.1202 21.6625 40.1412V43.3461C21.2736 43.2531 20.8955 43.1496 20.5407 43.0349V40.12ZM20.3539 40.1262C19.9353 40.1442 19.5543 40.189 19.2333 40.2696V42.4905C19.5544 42.6688 19.9354 42.829 20.3539 42.9727V40.1262ZM18.2051 41.2241C18.2051 40.7746 18.5261 40.4906 19.0465 40.3228V42.3804C18.5262 42.054 18.2051 41.6711 18.2051 41.2241Z"/>
        </mask>
        <path fill-rule="evenodd" clip-rule="evenodd"
              d="M35.7024 41.2241C35.7024 41.6542 35.4076 42.025 34.9255 42.3431V40.3423C35.4077 40.5123 35.7024 40.7916 35.7024 41.2241ZM33.5868 40.1269C34.0204 40.1465 34.4129 40.1955 34.7387 40.2844V42.4585C34.4128 42.6473 34.0204 42.8163 33.5868 42.9671V40.1269ZM33.4 40.1203C33.0554 40.1114 32.6882 40.1193 32.3103 40.1392V43.3369C32.6881 43.245 33.0553 43.143 33.4 43.0301V40.1203ZM31.0017 40.2459C31.3767 40.2063 31.7542 40.1729 32.1235 40.1499V43.3813C31.7541 43.4672 31.3766 43.5437 31.0017 43.6115V40.2459ZM30.8149 40.2661C30.4331 40.3084 30.0558 40.3564 29.6943 40.4053V43.8175C30.0555 43.7684 30.4329 43.711 30.8149 43.6446V40.2661ZM28.5815 40.563C28.8692 40.5212 29.1808 40.476 29.5075 40.4309V43.8424C29.1054 43.8947 28.7265 43.9367 28.3874 43.9692V40.5912L28.5815 40.563ZM28.2006 40.6181C27.7122 40.6881 27.3196 40.7406 27.0788 40.7526V44.0375H26.892V40.7527C26.6523 40.7408 26.2603 40.6888 25.772 40.6193V43.9874C26.339 44.0378 26.7732 44.0603 26.9849 44.0603C27.1976 44.0603 27.6329 44.0376 28.2006 43.9866V40.6181ZM25.5852 40.5925L25.386 40.5638L25.386 40.5638C25.0996 40.5225 24.7896 40.4778 24.4646 40.4331V43.8445C24.8671 43.8964 25.2462 43.9379 25.5852 43.9701V40.5925ZM23.156 40.2688C23.5384 40.3112 23.9161 40.359 24.2778 40.4077V43.8199C23.9163 43.7713 23.5386 43.7146 23.156 43.6489V40.2688ZM22.9692 40.2486C22.5951 40.2092 22.2183 40.1756 21.8493 40.1522V43.3898C22.2184 43.4742 22.5952 43.5495 22.9692 43.6162V40.2486ZM20.5407 40.12C20.8954 40.1114 21.2736 40.1202 21.6625 40.1412V43.3461C21.2736 43.2531 20.8955 43.1496 20.5407 43.0349V40.12ZM20.3539 40.1262C19.9353 40.1442 19.5543 40.189 19.2333 40.2696V42.4905C19.5544 42.6688 19.9354 42.829 20.3539 42.9727V40.1262ZM18.2051 41.2241C18.2051 40.7746 18.5261 40.4906 19.0465 40.3228V42.3804C18.5262 42.054 18.2051 41.6711 18.2051 41.2241Z"
              fill="url(#paint6_linear_480_1533)"/>
        <path d="M34.9255 42.3431H34.801V42.5745L34.9941 42.447L34.9255 42.3431ZM34.9255 40.3423L34.9669 40.2249L34.801 40.1664V40.3423H34.9255ZM34.7387 40.2844H34.8632V40.1892L34.7714 40.1642L34.7387 40.2844ZM33.5868 40.1269L33.5924 40.0025L33.4622 39.9966V40.1269H33.5868ZM34.7387 42.4585L34.8011 42.5662L34.8632 42.5302V42.4585H34.7387ZM33.5868 42.9671H33.4622V43.1422L33.6277 43.0847L33.5868 42.9671ZM32.3103 40.1392L32.3037 40.0149L32.1857 40.0211V40.1392H32.3103ZM33.4 40.1203H33.5245V39.9989L33.4032 39.9958L33.4 40.1203ZM32.3103 43.3369H32.1857V43.4953L32.3397 43.4579L32.3103 43.3369ZM33.4 43.0301L33.4387 43.1485L33.5245 43.1204V43.0301H33.4ZM32.1235 40.1499H32.248V40.0174L32.1157 40.0257L32.1235 40.1499ZM31.0017 40.2459L30.9886 40.122L30.8771 40.1338V40.2459H31.0017ZM32.1235 43.3813L32.1517 43.5026L32.248 43.4802V43.3813H32.1235ZM31.0017 43.6115H30.8771V43.7606L31.0238 43.7341L31.0017 43.6115ZM29.6943 40.4053L29.6776 40.2819L29.5697 40.2965V40.4053H29.6943ZM30.8149 40.2661H30.9394V40.127L30.8011 40.1423L30.8149 40.2661ZM29.6943 43.8175H29.5697V43.9601L29.711 43.9409L29.6943 43.8175ZM30.8149 43.6446L30.8362 43.7673L30.9394 43.7494V43.6446H30.8149ZM29.5075 40.4309H29.632V40.2879L29.4904 40.3075L29.5075 40.4309ZM28.5815 40.563L28.5994 40.6863L28.5994 40.6863L28.5815 40.563ZM29.5075 43.8424L29.5235 43.9659L29.632 43.9517V43.8424H29.5075ZM28.3874 43.9692H28.2629V44.1063L28.3993 44.0932L28.3874 43.9692ZM28.3874 40.5912L28.3695 40.4679L28.2629 40.4834V40.5912H28.3874ZM27.0788 40.7526L27.0726 40.6282L26.9543 40.6342V40.7526H27.0788ZM28.2006 40.6181H28.3251V40.4744L28.1829 40.4948L28.2006 40.6181ZM27.0788 44.0375V44.162H27.2034V44.0375H27.0788ZM26.892 44.0375H26.7675V44.162H26.892V44.0375ZM26.892 40.7527H27.0165V40.6342L26.8982 40.6283L26.892 40.7527ZM25.772 40.6193L25.7895 40.496L25.6474 40.4758V40.6193H25.772ZM25.772 43.9874H25.6474V44.1013L25.7609 44.1114L25.772 43.9874ZM28.2006 43.9866L28.2118 44.1106L28.3251 44.1004V43.9866H28.2006ZM25.386 40.5638L25.3682 40.6871L25.3682 40.6871L25.386 40.5638ZM25.5852 40.5925H25.7097V40.4847L25.6029 40.4693L25.5852 40.5925ZM25.386 40.5638L25.3682 40.6871L25.3682 40.6871L25.386 40.5638ZM24.4646 40.4331L24.4815 40.3097L24.34 40.2903V40.4331H24.4646ZM24.4646 43.8445H24.34V43.954L24.4486 43.968L24.4646 43.8445ZM25.5852 43.9701L25.5734 44.0941L25.7097 44.1071V43.9701H25.5852ZM24.2778 40.4077H24.4023V40.2988L24.2944 40.2843L24.2778 40.4077ZM23.156 40.2688L23.1697 40.145L23.0314 40.1297V40.2688H23.156ZM24.2778 43.8199L24.2612 43.9433L24.4023 43.9623V43.8199H24.2778ZM23.156 43.6489H23.0314V43.7539L23.1349 43.7717L23.156 43.6489ZM21.8493 40.1522L21.8572 40.028L21.7248 40.0196V40.1522H21.8493ZM22.9692 40.2486H23.0937V40.1365L22.9822 40.1248L22.9692 40.2486ZM21.8493 43.3898H21.7248V43.489L21.8215 43.5112L21.8493 43.3898ZM22.9692 43.6162L22.9473 43.7388L23.0937 43.765V43.6162H22.9692ZM21.6625 40.1412H21.7871V40.0233L21.6693 40.0169L21.6625 40.1412ZM20.5407 40.12L20.5377 39.9955L20.4162 39.9984V40.12H20.5407ZM21.6625 43.3461L21.6336 43.4672L21.7871 43.5039V43.3461H21.6625ZM20.5407 43.0349H20.4162V43.1255L20.5024 43.1534L20.5407 43.0349ZM19.2333 40.2696L19.203 40.1488L19.1088 40.1725V40.2696H19.2333ZM20.3539 40.1262H20.4785V39.9962L20.3486 40.0018L20.3539 40.1262ZM19.2333 42.4905H19.1088V42.5638L19.1728 42.5993L19.2333 42.4905ZM20.3539 42.9727L20.3135 43.0905L20.4785 43.1471V42.9727H20.3539ZM19.0465 40.3228H19.171V40.1519L19.0083 40.2043L19.0465 40.3228ZM18.2051 41.2241H18.0805H18.2051ZM19.0465 42.3804L18.9803 42.4859L19.171 42.6055V42.3804H19.0465ZM34.9941 42.447C35.4883 42.1209 35.827 41.7175 35.827 41.2241H35.5779C35.5779 41.5908 35.3269 41.929 34.8569 42.2392L34.9941 42.447ZM34.801 40.3423V42.3431H35.05V40.3423H34.801ZM35.827 41.2241C35.827 40.9763 35.7414 40.7683 35.5863 40.6003C35.4338 40.4351 35.2192 40.3138 34.9669 40.2249L34.8841 40.4598C35.114 40.5408 35.2878 40.6441 35.4033 40.7692C35.5161 40.8915 35.5779 41.0393 35.5779 41.2241H35.827ZM34.7714 40.1642C34.4335 40.0721 34.0311 40.0223 33.5924 40.0025L33.5812 40.2513C34.0098 40.2707 34.3923 40.319 34.7059 40.4045L34.7714 40.1642ZM34.8632 42.4585V40.2844H34.6142V42.4585H34.8632ZM33.6277 43.0847C34.0659 42.9323 34.4663 42.7603 34.8011 42.5662L34.6762 42.3507C34.3594 42.5343 33.9748 42.7003 33.5459 42.8495L33.6277 43.0847ZM33.4622 40.1269V42.9671H33.7113V40.1269H33.4622ZM32.3168 40.2636C32.6924 40.2438 33.0562 40.236 33.3968 40.2448L33.4032 39.9958C33.0546 39.9868 32.684 39.9949 32.3037 40.0149L32.3168 40.2636ZM32.4348 43.3369V40.1392H32.1857V43.3369H32.4348ZM33.3612 42.9118C33.0202 43.0234 32.6562 43.1246 32.2808 43.2159L32.3397 43.4579C32.72 43.3654 33.0904 43.2625 33.4387 43.1485L33.3612 42.9118ZM33.2754 40.1203V43.0301H33.5245V40.1203H33.2754ZM32.1157 40.0257C31.7443 40.0487 31.365 40.0823 30.9886 40.122L31.0147 40.3697C31.3884 40.3303 31.7641 40.297 32.1312 40.2742L32.1157 40.0257ZM32.248 43.3813V40.1499H31.9989V43.3813H32.248ZM31.0238 43.7341C31.4005 43.666 31.78 43.589 32.1517 43.5026L32.0952 43.26C31.7282 43.3454 31.3527 43.4215 30.9795 43.489L31.0238 43.7341ZM30.8771 40.2459V43.6115H31.1262V40.2459H30.8771ZM29.711 40.5287C30.0718 40.4799 30.4481 40.4321 30.8286 40.3899L30.8011 40.1423C30.4181 40.1848 30.0397 40.2329 29.6776 40.2819L29.711 40.5287ZM29.8188 43.8175V40.4053H29.5697V43.8175H29.8188ZM30.7935 43.5219C30.4133 43.588 30.0374 43.6452 29.6775 43.6941L29.711 43.9409C30.0737 43.8916 30.4526 43.834 30.8362 43.7673L30.7935 43.5219ZM30.6903 40.2661V43.6446H30.9394V40.2661H30.6903ZM29.4904 40.3075C29.1633 40.3527 28.8513 40.398 28.5636 40.4398L28.5994 40.6863C28.8872 40.6445 29.1984 40.5993 29.5245 40.5542L29.4904 40.3075ZM29.632 43.8424V40.4309H29.3829V43.8424H29.632ZM28.3993 44.0932C28.7397 44.0605 29.12 44.0184 29.5235 43.9659L29.4914 43.7189C29.0908 43.771 28.7132 43.8128 28.3755 43.8453L28.3993 44.0932ZM28.2629 40.5912V43.9692H28.5119V40.5912H28.2629ZM28.5636 40.4398L28.3695 40.4679L28.4053 40.7144L28.5994 40.6863L28.5636 40.4398ZM27.085 40.877C27.3328 40.8646 27.7317 40.8111 28.2183 40.7414L28.1829 40.4948C27.6927 40.5651 27.3064 40.6166 27.0726 40.6282L27.085 40.877ZM27.2034 44.0375V40.7526H26.9543V44.0375H27.2034ZM26.892 44.162H27.0788V43.913H26.892V44.162ZM26.7675 40.7527V44.0375H27.0165V40.7527H26.7675ZM25.7544 40.7426C26.2409 40.8119 26.6391 40.8649 26.8859 40.8771L26.8982 40.6283C26.6654 40.6168 26.2797 40.5658 25.7895 40.496L25.7544 40.7426ZM25.8965 43.9874V40.6193H25.6474V43.9874H25.8965ZM26.9849 43.9358C26.7788 43.9358 26.349 43.9137 25.783 43.8633L25.7609 44.1114C26.3291 44.162 26.7676 44.1849 26.9849 44.1849V43.9358ZM28.1895 43.8626C27.6229 43.9135 27.192 43.9358 26.9849 43.9358V44.1849C27.2033 44.1849 27.6429 44.1617 28.2118 44.1106L28.1895 43.8626ZM28.0761 40.6181V43.9866H28.3251V40.6181H28.0761ZM25.3682 40.6871L25.5674 40.7158L25.6029 40.4693L25.4037 40.4406L25.3682 40.6871ZM25.3682 40.6871L25.3682 40.6871L25.4037 40.4406L25.4037 40.4406L25.3682 40.6871ZM24.4476 40.5565C24.7722 40.6011 25.0818 40.6458 25.3682 40.6871L25.4037 40.4406C25.1175 40.3993 24.8071 40.3545 24.4815 40.3097L24.4476 40.5565ZM24.5891 43.8445V40.4331H24.34V43.8445H24.5891ZM25.597 43.8462C25.2593 43.814 24.8816 43.7727 24.4805 43.721L24.4486 43.968C24.8526 44.0201 25.2331 44.0618 25.5734 44.0941L25.597 43.8462ZM25.4606 40.5925V43.9701H25.7097V40.5925H25.4606ZM24.2944 40.2843C23.9321 40.2355 23.5533 40.1875 23.1697 40.145L23.1423 40.3926C23.5234 40.4348 23.9001 40.4825 24.2611 40.5311L24.2944 40.2843ZM24.4023 43.8199V40.4077H24.1532V43.8199H24.4023ZM23.1349 43.7717C23.5192 43.8376 23.8984 43.8946 24.2612 43.9433L24.2943 43.6965C23.9342 43.6481 23.558 43.5915 23.177 43.5262L23.1349 43.7717ZM23.0314 40.2688V43.6489H23.2805V40.2688H23.0314ZM21.8414 40.2765C22.2083 40.2998 22.5833 40.3332 22.9561 40.3725L22.9822 40.1248C22.6068 40.0852 22.2283 40.0515 21.8572 40.028L21.8414 40.2765ZM21.9739 43.3898V40.1522H21.7248V43.3898H21.9739ZM22.991 43.4936C22.6188 43.4272 22.2439 43.3523 21.8771 43.2684L21.8215 43.5112C22.1929 43.5961 22.5717 43.6718 22.9473 43.7388L22.991 43.4936ZM22.8446 40.2486V43.6162H23.0937V40.2486H22.8446ZM21.6693 40.0169C21.2779 39.9957 20.8965 39.9868 20.5377 39.9955L20.5437 40.2445C20.8944 40.236 21.2692 40.2447 21.6558 40.2656L21.6693 40.0169ZM21.7871 43.3461V40.1412H21.538V43.3461H21.7871ZM20.5024 43.1534C20.8608 43.2693 21.2422 43.3736 21.6336 43.4672L21.6915 43.2249C21.3051 43.1325 20.9301 43.0299 20.579 42.9164L20.5024 43.1534ZM20.4162 40.12V43.0349H20.6653V40.12H20.4162ZM19.2636 40.3904C19.5736 40.3126 19.9455 40.2685 20.3593 40.2506L20.3486 40.0018C19.9252 40.02 19.5351 40.0655 19.203 40.1488L19.2636 40.3904ZM19.3578 42.4905V40.2696H19.1088V42.4905H19.3578ZM20.3943 42.8549C19.9803 42.7128 19.6065 42.5553 19.2938 42.3816L19.1728 42.5993C19.5022 42.7823 19.8905 42.9453 20.3135 43.0905L20.3943 42.8549ZM20.2294 40.1262V42.9727H20.4785V40.1262H20.2294ZM19.0083 40.2043C18.7373 40.2916 18.5063 40.4128 18.3417 40.5806C18.1741 40.7515 18.0805 40.966 18.0805 41.2241H18.3296C18.3296 41.0327 18.3965 40.8804 18.5195 40.755C18.6456 40.6265 18.8352 40.5218 19.0847 40.4414L19.0083 40.2043ZM19.171 42.3804V40.3228H18.922V42.3804H19.171ZM18.0805 41.2241C18.0805 41.7373 18.4493 42.1528 18.9803 42.4859L19.1127 42.2748C18.6031 41.9552 18.3296 41.6048 18.3296 41.2241H18.0805Z"
              fill="white" mask="url(#path-7-inside-1_480_1533)"/>
        <path opacity="0.76"
              d="M41.3673 35.4768V36.7334C41.3673 36.8082 41.3664 36.8825 41.3648 36.956C41.2241 30.4399 34.846 28.7992 26.9992 28.7992C19.1525 28.7992 12.7741 30.4403 12.6333 36.956C12.6315 36.8825 12.6309 36.8082 12.6309 36.7334V35.4768C12.6309 28.7757 19.0637 27.0979 26.9996 27.0979C34.9354 27.0979 41.3676 28.7757 41.3676 35.4768H41.3673Z"
              fill="#101010"/>
        <path d="M19.042 19.501C21.437 18.9997 24.1326 18.8042 26.9848 18.8042C29.837 18.8042 32.5326 18.9997 34.9273 19.5007C34.0967 20.4045 33.547 21.6078 33.2872 23.1375L33.2872 23.1376C33.208 23.606 32.8283 23.9373 32.3971 23.9373H21.5725C21.1413 23.9373 20.7615 23.6057 20.6817 23.1375C20.4223 21.6078 19.8726 20.4042 19.042 19.501Z"
              fill="url(#paint7_linear_480_1533)" stroke="white" stroke-width="0.124537"/>
    </g>
    <defs>
        <filter id="filter0_dddd_480_1533" x="0.904024" y="0.795245" width="52.192" height="51.3491"
                filterUnits="userSpaceOnUse" color-interpolation-filters="sRGB">
            <feFlood flood-opacity="0" result="BackgroundImageFix"/>
            <feColorMatrix in="SourceAlpha" type="matrix" values="0 0 0 0 0 0 0 0 0 0 0 0 0 0 0 0 0 0 127 0"
                           result="hardAlpha"/>
            <feOffset dy="-0.886257"/>
            <feGaussianBlur stdDeviation="0.886257"/>
            <feColorMatrix type="matrix" values="0 0 0 0 0.109804 0 0 0 0 0.109804 0 0 0 0 0.109804 0 0 0 0.1 0"/>
            <feBlend mode="normal" in2="BackgroundImageFix" result="effect1_dropShadow_480_1533"/>
            <feColorMatrix in="SourceAlpha" type="matrix" values="0 0 0 0 0 0 0 0 0 0 0 0 0 0 0 0 0 0 127 0"
                           result="hardAlpha"/>
            <feOffset dy="-3.1019"/>
            <feGaussianBlur stdDeviation="1.55095"/>
            <feColorMatrix type="matrix" values="0 0 0 0 0.109804 0 0 0 0 0.109804 0 0 0 0 0.109804 0 0 0 0.09 0"/>
            <feBlend mode="normal" in2="effect1_dropShadow_480_1533" result="effect2_dropShadow_480_1533"/>
            <feColorMatrix in="SourceAlpha" type="matrix" values="0 0 0 0 0 0 0 0 0 0 0 0 0 0 0 0 0 0 127 0"
                           result="hardAlpha"/>
            <feOffset dy="-7.31162"/>
            <feGaussianBlur stdDeviation="2.21564"/>
            <feColorMatrix type="matrix" values="0 0 0 0 0.109804 0 0 0 0 0.109804 0 0 0 0 0.109804 0 0 0 0.05 0"/>
            <feBlend mode="normal" in2="effect2_dropShadow_480_1533" result="effect3_dropShadow_480_1533"/>
            <feColorMatrix in="SourceAlpha" type="matrix" values="0 0 0 0 0 0 0 0 0 0 0 0 0 0 0 0 0 0 127 0"
                           result="hardAlpha"/>
            <feOffset dy="-12.8507"/>
            <feGaussianBlur stdDeviation="2.54799"/>
            <feColorMatrix type="matrix" values="0 0 0 0 0.109804 0 0 0 0 0.109804 0 0 0 0 0.109804 0 0 0 0.01 0"/>
            <feBlend mode="normal" in2="effect3_dropShadow_480_1533" result="effect4_dropShadow_480_1533"/>
            <feBlend mode="normal" in="SourceGraphic" in2="effect4_dropShadow_480_1533" result="shape"/>
        </filter>
        <linearGradient id="paint0_linear_480_1533" x1="6" y1="33.4041" x2="10.0163" y2="33.4041"
                        gradientUnits="userSpaceOnUse">
            <stop stop-color="#E6E6E6"/>
            <stop offset="1" stop-color="#7B7B7B"/>
        </linearGradient>
        <linearGradient id="paint1_linear_480_1533" x1="43.9834" y1="33.4041" x2="47.9994" y2="33.4041"
                        gradientUnits="userSpaceOnUse">
            <stop stop-color="#E6E6E6"/>
            <stop offset="1" stop-color="#7B7B7B"/>
        </linearGradient>
        <linearGradient id="paint2_linear_480_1533" x1="8.92707" y1="36.1892" x2="45.0423" y2="36.1892"
                        gradientUnits="userSpaceOnUse">
            <stop stop-color="#E6E6E6"/>
            <stop offset="1" stop-color="#7B7B7B"/>
        </linearGradient>
        <linearGradient id="paint3_linear_480_1533" x1="26.9992" y1="29.4424" x2="26.9992" y2="46.6165"
                        gradientUnits="userSpaceOnUse">
            <stop stop-color="#101010"/>
            <stop offset="1" stop-color="#393939"/>
        </linearGradient>
        <linearGradient id="paint4_linear_480_1533" x1="18.3889" y1="34.0428" x2="23.7586" y2="29.8834"
                        gradientUnits="userSpaceOnUse">
            <stop stop-color="#C6A65B"/>
            <stop offset="0.09" stop-color="#C6A65B"/>
            <stop offset="0.17" stop-color="#DEC990"/>
            <stop offset="0.25" stop-color="#F2E5BB"/>
            <stop offset="0.29" stop-color="#F9F0CB"/>
            <stop offset="0.45" stop-color="#CFB881"/>
            <stop offset="0.47" stop-color="#BFA56C"/>
            <stop offset="0.52" stop-color="#A18246"/>
            <stop offset="0.54" stop-color="#967537"/>
            <stop offset="0.65" stop-color="#BE9E55"/>
            <stop offset="0.73" stop-color="#DBBB6A"/>
            <stop offset="0.83" stop-color="#DEC075"/>
            <stop offset="0.89" stop-color="#E8D5A2"/>
            <stop offset="1" stop-color="#E8D5A2"/>
        </linearGradient>
        <linearGradient id="paint5_linear_480_1533" x1="32.0579" y1="34.0428" x2="37.4275" y2="29.8834"
                        gradientUnits="userSpaceOnUse">
            <stop stop-color="#C6A65B"/>
            <stop offset="0.09" stop-color="#C6A65B"/>
            <stop offset="0.17" stop-color="#DEC990"/>
            <stop offset="0.25" stop-color="#F2E5BB"/>
            <stop offset="0.29" stop-color="#F9F0CB"/>
            <stop offset="0.45" stop-color="#CFB881"/>
            <stop offset="0.47" stop-color="#BFA56C"/>
            <stop offset="0.52" stop-color="#A18246"/>
            <stop offset="0.54" stop-color="#967537"/>
            <stop offset="0.65" stop-color="#BE9E55"/>
            <stop offset="0.73" stop-color="#DBBB6A"/>
            <stop offset="0.83" stop-color="#DEC075"/>
            <stop offset="0.89" stop-color="#E8D5A2"/>
            <stop offset="1" stop-color="#E8D5A2"/>
        </linearGradient>
        <linearGradient id="paint6_linear_480_1533" x1="19.0495" y1="41.2957" x2="24.3618" y2="27.8676"
                        gradientUnits="userSpaceOnUse">
            <stop stop-color="#C6A65B"/>
            <stop offset="0.09" stop-color="#C6A65B"/>
            <stop offset="0.17" stop-color="#DEC990"/>
            <stop offset="0.25" stop-color="#F2E5BB"/>
            <stop offset="0.29" stop-color="#F9F0CB"/>
            <stop offset="0.45" stop-color="#CFB881"/>
            <stop offset="0.47" stop-color="#BFA56C"/>
            <stop offset="0.52" stop-color="#A18246"/>
            <stop offset="0.54" stop-color="#967537"/>
            <stop offset="0.65" stop-color="#BE9E55"/>
            <stop offset="0.73" stop-color="#DBBB6A"/>
            <stop offset="0.83" stop-color="#DEC075"/>
            <stop offset="0.89" stop-color="#E8D5A2"/>
            <stop offset="1" stop-color="#E8D5A2"/>
        </linearGradient>
        <linearGradient id="paint7_linear_480_1533" x1="19.6993" y1="20.3138" x2="28.6243" y2="4.7167"
                        gradientUnits="userSpaceOnUse">
            <stop stop-color="#C6A65B"/>
            <stop offset="0.09" stop-color="#C6A65B"/>
            <stop offset="0.17" stop-color="#DEC990"/>
            <stop offset="0.25" stop-color="#F2E5BB"/>
            <stop offset="0.29" stop-color="#F9F0CB"/>
            <stop offset="0.45" stop-color="#CFB881"/>
            <stop offset="0.47" stop-color="#BFA56C"/>
            <stop offset="0.52" stop-color="#A18246"/>
            <stop offset="0.54" stop-color="#967537"/>
            <stop offset="0.65" stop-color="#BE9E55"/>
            <stop offset="0.73" stop-color="#DBBB6A"/>
            <stop offset="0.83" stop-color="#DEC075"/>
            <stop offset="0.89" stop-color="#E8D5A2"/>
            <stop offset="1" stop-color="#E8D5A2"/>
        </linearGradient>
    </defs>
</svg>
