<svg width="16" height="28" viewBox="0 0 16 28" fill="none" xmlns="http://www.w3.org/2000/svg">
<path fill-rule="evenodd" clip-rule="evenodd" d="M15.84 20.3135V21.9533C15.4406 22.5723 14.8336 23.1482 14.0389 23.6449C12.5197 24.5944 10.3861 25.1999 8.00005 25.1999C5.61398 25.1999 3.48038 24.5944 1.96118 23.6449C1.16648 23.1482 0.559481 22.5723 0.160034 21.9533V20.3134C0.51924 20.6499 0.925337 20.9582 1.36758 21.2346C3.09126 22.3119 5.43765 22.9599 8.00005 22.9599C10.5625 22.9599 12.9088 22.3119 14.6325 21.2346C15.0747 20.9582 15.4808 20.6499 15.84 20.3135ZM15.84 18.5933C15.4406 19.2123 14.8336 19.7882 14.0389 20.2849C12.5197 21.2344 10.3861 21.8399 8.00005 21.8399C5.61398 21.8399 3.48038 21.2344 1.96118 20.2849C1.16648 19.7882 0.559481 19.2123 0.160034 18.5933V3.35995V2.23995H0.377423C1.02291 0.882916 3.04722 0.960793 5.65851 1.06125C6.39795 1.0897 7.18444 1.11995 8.00003 1.11995C8.81562 1.11995 9.60212 1.0897 10.3415 1.06125C12.9528 0.960793 14.9771 0.882916 15.6226 2.23995H15.84V3.35995V18.5933ZM14.6325 24.5946C15.0747 24.3182 15.4808 24.0099 15.84 23.6735V24.6399C15.84 26.4956 12.3299 27.9999 8.00003 27.9999C3.67012 27.9999 0.160034 26.4956 0.160034 24.6399V23.6734C0.51924 24.0099 0.925337 24.3182 1.36758 24.5946C3.09126 25.6719 5.43765 26.3199 8.00005 26.3199C10.5625 26.3199 12.9088 25.6719 14.6325 24.5946Z" fill="#0AB04C"/>
<path d="M15.84 2.24C15.84 3.47712 12.3299 4.48 8.00003 4.48C3.67012 4.48 0.160034 3.47712 0.160034 2.24C0.160034 1.00288 3.67012 0 8.00003 0C12.3299 0 15.84 1.00288 15.84 2.24Z" fill="#0AB04C"/>
<path d="M15.28 2.24C15.28 2.26508 15.2577 2.41328 14.9105 2.64786C14.5827 2.86924 14.0717 3.09067 13.3899 3.28546C12.0339 3.67288 10.1282 3.92 8.00003 3.92C5.87191 3.92 3.96612 3.67288 2.61016 3.28546C1.92837 3.09067 1.41733 2.86924 1.08961 2.64786C0.742332 2.41328 0.720034 2.26508 0.720034 2.24C0.720034 2.21492 0.742332 2.06672 1.08961 1.83214C1.41733 1.61075 1.92837 1.38933 2.61016 1.19453C3.96612 0.807116 5.87191 0.56 8.00003 0.56C10.1282 0.56 12.0339 0.807116 13.3899 1.19453C14.0717 1.38933 14.5827 1.61075 14.9105 1.83214C15.2577 2.06672 15.28 2.21492 15.28 2.24Z" stroke="black" stroke-opacity="0.2" stroke-width="1.12"/>
<path d="M7.40268 8.79996C7.3356 8.79996 7.27565 8.84179 7.25251 8.90474L5.60984 13.3723C5.59179 13.4213 5.59887 13.4761 5.6288 13.519C5.65872 13.5619 5.70771 13.5875 5.76001 13.5875H7.49364L6.42664 17.6308C6.40648 17.7072 6.4451 17.7868 6.51755 17.8183C6.59001 17.8498 6.67461 17.8237 6.71672 17.7569L10.3754 11.9491C10.4064 11.8998 10.4082 11.8375 10.3801 11.7865C10.3519 11.7355 10.2983 11.7038 10.24 11.7038H8.15299L9.12122 9.01415C9.13887 8.96513 9.13154 8.91058 9.10158 8.86796C9.07162 8.82533 9.02278 8.79996 8.97068 8.79996H7.40268Z" fill="#FFCD1B" stroke="white" stroke-width="0.32" stroke-linejoin="round"/>
</svg>
