<svg width="20" height="30" viewBox="0 0 20 30" fill="none" xmlns="http://www.w3.org/2000/svg">
<path d="M2.58499 24.6499L2.08421 23.2032C1.67394 22.018 1.46448 20.7726 1.46448 19.5183V17.0774V15.6323V12.8787C1.46448 12.4405 1.61982 12.0164 1.90291 11.6819C2.25498 11.2658 2.78078 11.0258 3.32582 11.0258C3.75385 11.0258 4.1756 11.1715 4.50984 11.4389L4.89674 11.7484L5.54615 10.9598C5.93562 10.4869 6.51618 10.2129 7.12884 10.2129C7.50044 10.2129 7.86506 10.3139 8.18371 10.5051L9.05157 11.0258L9.27707 10.6199C9.42586 10.3521 9.63362 10.1216 9.88463 9.94589C10.2242 9.70816 10.6288 9.58064 11.0433 9.58064H11.2193H11.5608C12.0893 9.58064 12.5915 9.8116 12.9354 10.2129V2.93311C12.9354 2.49997 13.0809 2.07938 13.3485 1.73879L13.38 1.69874C13.7266 1.25759 14.2566 1 14.8176 1H14.8388C15.1308 1 15.4182 1.07327 15.6745 1.21311C16.062 1.42444 16.355 1.77471 16.4945 2.19339L16.6611 2.69299C16.7659 3.00744 16.8193 3.33672 16.8193 3.66817V5.24516V9.03871C16.8193 11.1418 17.012 13.2405 17.395 15.3084L17.7225 17.0774L18.0838 18.4323L18.2739 19.0026C18.4471 19.5222 18.5354 20.0663 18.5354 20.614C18.5354 21.1434 18.453 21.6695 18.291 22.1734L18.1052 22.7516C17.8513 23.5413 17.4891 24.2921 17.029 24.9823L16.7718 25.3681C16.443 25.8613 16.0663 26.3208 15.6471 26.7399L15.3595 27.0275C14.9498 27.4372 14.4842 27.7869 13.9766 28.0661C13.2889 28.4443 12.535 28.6872 11.7559 28.7817L11.1254 28.8581C10.348 28.9523 9.56195 28.9493 8.78533 28.8491L8.36996 28.7955C7.56401 28.6915 6.77714 28.4725 6.03333 28.1453L5.65292 27.9779C5.15145 27.7572 4.6847 27.4649 4.26726 27.1101C3.49671 26.4551 2.9158 25.6056 2.58499 24.6499Z" fill="#FDF9CF"/>
<path d="M4.89674 11.7484L4.50984 11.4389C4.1756 11.1715 3.75385 11.0258 3.32582 11.0258V11.0258C2.78078 11.0258 2.25498 11.2658 1.90291 11.6819V11.6819C1.61982 12.0164 1.46448 12.4405 1.46448 12.8787V15.6323M4.89674 11.7484L5.54615 10.9598C5.93562 10.4869 6.51618 10.2129 7.12884 10.2129V10.2129C7.50044 10.2129 7.86506 10.3139 8.18371 10.5051L9.05157 11.0258M4.89674 11.7484V16.0839M9.05157 11.0258L9.27707 10.6199C9.42586 10.3521 9.63362 10.1216 9.88463 9.94589V9.94589C10.2242 9.70816 10.6288 9.58065 11.0433 9.58065H11.2193H11.5608C12.0893 9.58065 12.5915 9.8116 12.9354 10.2129V10.2129M9.05157 11.0258V15.0903M12.9354 10.2129V2.93311C12.9354 2.49997 13.0809 2.07938 13.3485 1.73879L13.38 1.69874C13.7266 1.25759 14.2566 1 14.8176 1H14.8388C15.1308 1 15.4182 1.07327 15.6745 1.21311V1.21311C16.062 1.42444 16.355 1.77471 16.4945 2.19339L16.6611 2.69299C16.7659 3.00744 16.8193 3.33672 16.8193 3.66817V5.24516V9.03871V9.03871C16.8193 11.1418 17.012 13.2405 17.395 15.3084L17.7225 17.0774M12.9354 10.2129V10.2129C13.2888 10.743 13.4774 11.3657 13.4774 12.0028V15.3153M17.7225 17.0774L18.0838 18.4323L18.2739 19.0026C18.4471 19.5222 18.5354 20.0663 18.5354 20.614V20.614C18.5354 21.1434 18.453 21.6695 18.291 22.1734L18.1052 22.7516C17.8513 23.5413 17.4891 24.2921 17.029 24.9823L16.7718 25.3681C16.443 25.8613 16.0663 26.3208 15.6471 26.7399L15.3595 27.0275C14.9498 27.4372 14.4842 27.7869 13.9766 28.0661V28.0661C13.2889 28.4443 12.535 28.6872 11.7559 28.7817L11.1254 28.8581C10.348 28.9523 9.56195 28.9493 8.78533 28.8491L8.36996 28.7955C7.56401 28.6915 6.77714 28.4725 6.03333 28.1453L5.65292 27.9779C5.15145 27.7572 4.6847 27.4649 4.26726 27.1101V27.1101C3.49671 26.4551 2.9158 25.6056 2.58499 24.6499L2.08421 23.2032C1.67394 22.018 1.46448 20.7726 1.46448 19.5183V17.0774V15.6323M17.7225 17.0774L13.4774 15.3153M4.89674 16.0839L4.46533 16.5584C4.16483 16.889 3.73883 17.0774 3.29209 17.0774V17.0774C2.76996 17.0774 2.2813 16.8204 1.9855 16.3901L1.46448 15.6323M4.89674 16.0839L6.16125 17.0774M6.16125 17.0774L6.61286 16.0839V16.0839C6.94694 15.4714 7.58888 15.0903 8.28654 15.0903H9.05157M6.16125 17.0774L7.22639 18.3305C7.53407 18.6925 7.93501 18.9633 8.3857 19.1135V19.1135C8.82182 19.2589 9.28867 19.2861 9.73871 19.1923L10.4135 19.0518C10.925 18.9452 11.4576 19.0672 11.8717 19.3857V19.3857C12.2086 19.6448 12.4424 20.0152 12.5314 20.4308L12.6645 21.0516M9.05157 15.0903H12.3487C12.736 15.0903 13.1196 15.1668 13.4774 15.3153V15.3153" stroke="#121212"/>
</svg>
