<svg width="18" height="32" viewBox="0 0 18 32" fill="none" xmlns="http://www.w3.org/2000/svg">
<path d="M7.27968 1.48575C7.06411 1.48575 6.87141 1.6202 6.79702 1.82253L1.51734 16.1815C1.45933 16.3393 1.48208 16.5154 1.57826 16.6532C1.67445 16.7911 1.83192 16.8732 2 16.8732H7.57205L4.14261 29.8688C4.07781 30.1143 4.20193 30.3704 4.43481 30.4716C4.66769 30.5729 4.9396 30.489 5.07495 30.2741L16.8342 11.6074C16.9341 11.449 16.9398 11.2488 16.8494 11.0848C16.7589 10.9209 16.5864 10.8191 16.3991 10.8191H9.69126L12.8032 2.17418C12.86 2.01661 12.8364 1.8413 12.7401 1.70429C12.6438 1.56729 12.4868 1.48575 12.3194 1.48575H7.27968Z" fill="#FFCD1B" stroke="white" stroke-width="1.02851" stroke-linejoin="round"/>
</svg>
