<svg width="30" height="44" viewBox="0 0 30 44" fill="none" xmlns="http://www.w3.org/2000/svg">
<path d="M1.77584 10.0176C1.96758 15.0206 1.4956 20.1114 2.48064 25.0476C3.45446 29.9217 5.32016 34.5636 7.28199 39.0618C7.92271 40.5158 8.58763 41.9566 9.25969 43.3939L13.557 42.347C17.2024 41.4583 20.8481 40.57 24.4941 39.682C25.9221 39.3339 27.3501 38.986 28.7781 38.6385L28.7913 38.6389C28.1186 37.2484 27.4603 35.8489 26.8324 34.4336C26.8324 34.4336 26.8236 34.4333 26.8191 34.4379C24.8372 29.9064 22.9786 25.2076 21.999 20.2949C21.0129 15.3634 21.4815 10.2697 21.2942 5.26592C21.2104 3.70395 21.0584 2.13236 20.728 0.605699L16.4307 1.6526C12.79 2.54076 9.14868 3.42797 5.50686 4.31423C4.07412 4.6635 2.64167 5.01278 1.20951 5.36207C1.54269 6.88414 1.69299 8.45568 1.77584 10.0176Z" fill="#0AB04C"/>
<path d="M1.77584 10.0176C1.96758 15.0206 1.4956 20.1114 2.48064 25.0476C3.45446 29.9217 5.32016 34.5636 7.28199 39.0618C7.92271 40.5158 8.58763 41.9566 9.25969 43.3939L13.557 42.347C17.2024 41.4583 20.8481 40.57 24.4941 39.682C25.9221 39.3339 27.3501 38.986 28.7781 38.6385L28.7913 38.6389C28.1186 37.2484 27.4603 35.8489 26.8324 34.4336C26.8324 34.4336 26.8236 34.4333 26.8191 34.4379C24.8372 29.9064 22.9786 25.2076 21.999 20.2949C21.0129 15.3634 21.4815 10.2697 21.2942 5.26592C21.2104 3.70395 21.0584 2.13236 20.728 0.605699L16.4307 1.6526C12.79 2.54076 9.14868 3.42797 5.50686 4.31423C4.07412 4.6635 2.64167 5.01278 1.20951 5.36207C1.54269 6.88414 1.69299 8.45568 1.77584 10.0176Z" fill="white"/>
<path d="M15.0862 4.00645L8.08627 5.562C7.73114 5.64091 7.40426 5.8152 7.14083 6.06609L4.21545 8.85217C3.81909 9.22965 3.59476 9.75309 3.59476 10.3004V19.033L3.73624 21.1199C4.13743 27.0374 5.95907 32.771 9.04684 37.835C9.04743 37.8359 9.04833 37.8367 9.04939 37.837L14.3082 39.7031C14.679 39.8347 15.0804 39.8539 15.4621 39.7585L22.1315 38.0912C22.7694 37.9317 23.2882 37.4688 23.5191 36.8531L24.842 33.3254C24.8424 33.3243 24.8423 33.323 24.8417 33.322C23.7178 31.1989 22.839 28.9549 22.2223 26.6332L21.4933 23.8888C20.4698 20.0357 19.8566 16.0851 19.6639 12.1029L19.39 6.44149C19.3897 6.43721 19.3877 6.43324 19.3843 6.43062L16.748 4.38012C16.2774 4.01414 15.6681 3.87714 15.0862 4.00645Z" fill="white"/>
<path d="M15.0862 4.00645L8.08627 5.562C7.73114 5.64091 7.40426 5.8152 7.14083 6.06609L4.21545 8.85217C3.81909 9.22965 3.59476 9.75309 3.59476 10.3004V19.033L3.73624 21.1199C4.13743 27.0374 5.95907 32.771 9.04684 37.835C9.04743 37.8359 9.04833 37.8367 9.04939 37.837L14.3082 39.7031C14.679 39.8347 15.0804 39.8539 15.4621 39.7585L22.1315 38.0912C22.7694 37.9317 23.2882 37.4688 23.5191 36.8531L24.842 33.3254C24.8424 33.3243 24.8423 33.323 24.8417 33.322C23.7178 31.1989 22.839 28.9549 22.2223 26.6332L21.4933 23.8888C20.4698 20.0357 19.8566 16.0851 19.6639 12.1029L19.39 6.44149C19.3897 6.43721 19.3877 6.43324 19.3843 6.43062L16.748 4.38012C16.2774 4.01414 15.6681 3.87714 15.0862 4.00645Z" fill="#0AB04C"/>
<ellipse cx="13.8196" cy="22.9632" rx="5.00154" ry="5.32121" transform="rotate(-97.1194 13.8196 22.9632)" fill="white"/>
</svg>
